# xmcd
#
# Track frame offsets: 
#        150
#        10845
#        24412
#        34232
#        42287
#        53972
#        66455
#        78737
#        88010
#        99550
#        113077
#        122904
#
# Disc length: 1786 seconds
#
# Revision: 2
# Processed by: cddbd v1.5.2PL0 Copyright (c) Steve Scherf et al.
# Submitted via: ExactAudioCopyFreeDBPlugin 1.0
#
DISCID=9f06f80c
DTITLE=TonicoTonico and Tinoco - Viva a Viola
DYEAR=1900
DGENRE=Country
TTITLE0=Tonico and Tinoco - Baile na Roça
TTITLE1=Tonico and Tinoco - Viola de Ouro
TTITLE2=Tonico and Tinoco - Bailão Gaúcho
TTITLE3=Tonico and Tinoco - Coração Sofredor
TTITLE4=Tonico and Tinoco - Adeus, Adeus
TTITLE5=Tonico and Tinoco - Valsinha Cabocla
TTITLE6=Tonico and Tinoco - Bate Co Pé, Bate Cá Mão
TTITLE7=Tonico and Tinoco - Viva a Viola
TTITLE8=Tonico and Tinoco - Beto Carreiro
TTITLE9=Tonico and Tinoco - Saracura Três Potes
TTITLE10=Tonico and Tinoco - La Paloma
TTITLE11=Tonico and Tinoco - Cantar é  Viver
EXTD=
EXTT0=
EXTT1=
EXTT2=
EXTT3=
EXTT4=
EXTT5=
EXTT6=
EXTT7=
EXTT8=
EXTT9=
EXTT10=
EXTT11=
PLAYORDER=
